<svg width="24" height="23" viewBox="0 0 24 23" fill="none" xmlns="http://www.w3.org/2000/svg">
<path d="M23.7477 19.1633V10.3474C23.7477 9.02395 23.2191 7.75386 22.2578 6.84413C21.131 5.77772 19.5677 4.33909 18.3055 3.3315C15.9181 1.42554 14.7266 0 11.8739 0C9.0212 0 7.82962 1.42554 5.44219 3.3315C4.18006 4.33909 2.61671 5.77772 1.48989 6.84413C0.528628 7.75386 0 9.02395 0 10.3474V19.1633C0 20.8027 1.32903 22.1318 2.96847 22.1318H6.92642C8.01938 22.1318 8.9054 21.2458 8.9054 20.1528V15.8045C8.9054 14.812 9.40143 13.8852 10.2273 13.3346C11.2244 12.6699 12.5234 12.6699 13.5205 13.3346C14.3463 13.8852 14.8423 14.812 14.8423 15.8045V20.1528C14.8423 21.2458 15.7283 22.1318 16.8213 22.1318H20.7793C22.4187 22.1318 23.7477 20.8027 23.7477 19.1633Z" fill="white"/>
</svg>
