<svg width="628" height="783" viewBox="0 0 628 783" fill="none" xmlns="http://www.w3.org/2000/svg">
<path d="M488.675 362.905C485.531 361.289 482.337 359.733 479.102 358.243C473.467 246.882 416.74 183.128 321.489 182.476C321.058 182.473 320.628 182.473 320.197 182.473C263.224 182.473 215.841 208.559 186.677 256.028L239.062 294.574C260.849 259.117 295.041 251.558 320.222 251.558C320.513 251.558 320.805 251.558 321.093 251.561C352.455 251.776 376.122 261.557 391.439 280.632C402.586 294.519 410.042 313.71 413.733 337.929C385.927 332.859 355.854 331.301 323.706 333.278C233.146 338.873 174.926 395.529 178.836 474.253C180.82 514.186 199.366 548.54 231.056 570.982C257.849 589.954 292.356 599.232 328.22 597.131C375.582 594.346 412.737 574.963 438.658 539.52C458.344 512.604 470.795 477.724 476.292 433.774C498.864 448.386 515.592 467.614 524.83 490.729C540.539 530.022 541.455 594.591 492.34 647.231C449.307 693.346 397.579 713.297 319.404 713.913C232.687 713.223 167.104 683.392 124.464 625.246C84.5354 570.799 63.8999 492.156 63.13 391.5C63.8999 290.843 84.5354 212.2 124.464 157.753C167.104 99.6078 232.686 69.7767 319.403 69.0855C406.749 69.782 473.475 99.7566 517.747 158.182C539.456 186.834 555.822 222.865 566.612 264.875L628 247.306C614.922 195.596 594.342 151.036 566.338 114.081C509.581 39.1772 426.572 0.795838 319.617 0H319.189C212.452 0.793073 130.372 39.3205 75.2316 114.511C26.1637 181.421 0.853129 274.522 0.00266126 391.225L0 391.5L0.00266126 391.775C0.853129 508.477 26.1637 601.581 75.2316 668.49C130.372 743.679 212.452 782.209 319.189 783H319.617C414.513 782.294 481.402 755.644 536.505 696.589C608.599 619.329 606.428 522.485 582.667 463.034C565.62 420.402 533.118 385.775 488.675 362.905ZM324.829 528.146C285.138 530.544 243.904 511.434 241.87 470.501C240.363 440.152 262.006 406.287 327.265 402.253C334.739 401.791 342.073 401.565 349.277 401.565C372.981 401.565 395.157 404.035 415.318 408.763C407.798 509.501 363.69 525.858 324.829 528.146Z" fill="white"/>
</svg>
